<svg width="401" height="401" viewBox="0 0 401 401" fill="none" xmlns="http://www.w3.org/2000/svg">
<path d="M375.21 87.2014C375.034 84.4007 373.924 81.7399 372.056 79.6453C370.189 77.5507 367.673 76.1435 364.91 75.6491C297.531 63.5721 269.179 54.1267 208.332 26.7459C202.255 24.4825 198.488 24.5216 192.668 26.7459C131.821 54.158 103.469 63.5565 36.0903 75.6491C33.3281 76.1435 30.8117 77.5507 28.9443 79.6453C27.0769 81.7399 25.9666 84.4007 25.7912 87.2014C22.7759 135.055 29.1903 179.619 44.87 219.68C57.6912 252.347 76.6854 282.238 100.814 307.72C135.8 344.867 174.592 366.554 194.595 374.762C198.388 376.31 202.636 376.31 206.429 374.762C227.576 366.21 264.927 345.141 300.186 307.704C324.314 282.227 343.308 252.342 356.131 219.68C371.81 179.627 378.225 135.055 375.21 87.2014Z" fill="#EEEEEE"/>
</svg>
